<svg version="1.1" xmlns="http://www.w3.org/2000/svg" xmlns:xlink="http://www.w3.org/1999/xlink" width="466.24397" height="279.23755" viewBox="0,0,466.24397,279.23755"><g transform="translate(-6.73096,-40.38124)"><g data-paper-data="{&quot;isPaintingLayer&quot;:true}" fill-rule="nonzero" stroke-linecap="butt" stroke-linejoin="miter" stroke-miterlimit="10" stroke-dasharray="" stroke-dashoffset="0" style="mix-blend-mode: normal"><path d="M21.65497,319.61879v-242.19654h451.31996v242.19655z" fill="#000000" stroke="none" stroke-width="0"/><path d="M21.59834,95.48964c0,0 0,-24.04918 0,-31.07281c0,-3.60305 5.97057,-8.17704 13.76471,-8.17704c38.77808,0 349.845,0 422.48112,0c9.68187,0 15.12756,5.48032 15.12756,9.5399c0,7.16403 0,29.70996 0,29.70996z" fill="#000000" stroke="none" stroke-width="0"/><path d="M6.7876,303.76025v-242.19654h451.61408v242.19655z" fill="#ffffff" stroke="none" stroke-width="0"/><path d="M6.73096,79.63111c0,0 0,-24.04918 0,-31.07281c0,-3.60305 5.97057,-8.17705 13.76471,-8.17705c38.77808,0 349.845,0 422.48112,0c9.68187,0 15.12755,5.48032 15.12755,9.5399c0,7.16403 0,29.70996 0,29.70996z" fill="#e0e0e0" stroke="none" stroke-width="0"/><path d="M424.59613,59.17982c0,-7.74182 6.276,-14.01781 14.01782,-14.01781c7.74182,0 14.01781,6.27599 14.01781,14.01781c0,7.74182 -6.27599,14.01781 -14.01781,14.01781c-7.74182,0 -14.01782,-6.27599 -14.01782,-14.01781z" fill="#e04545" stroke="none" stroke-width="0"/><path d="M26.63866,160v-70.71428h70.71429v70.71429z" fill="#d4d4d4" stroke="#cecece" stroke-width="7.5"/><path d="M119.4958,160.71429v-70.71428h70.71428v70.71428z" fill="#d4d4d4" stroke="#cecece" stroke-width="7.5"/><text transform="translate(49.4958,125.7143) scale(0.5,0.5)" font-size="40" xml:space="preserve" fill="#000000" fill-rule="nonzero" stroke="none" stroke-width="1" stroke-linecap="butt" stroke-linejoin="miter" stroke-miterlimit="10" stroke-dasharray="" stroke-dashoffset="0" font-family="Sans Serif" font-weight="normal" text-anchor="start" style="mix-blend-mode: normal"><tspan x="0" dy="0">2D</tspan></text><g stroke="none" stroke-width="1" font-family="Sans Serif" font-weight="normal" font-size="40" text-anchor="start"><g fill="#636363"><text transform="translate(141.61856,127.39428) scale(0.47264,0.47264)" font-size="40" xml:space="preserve" fill="#636363" fill-rule="nonzero" stroke="none" stroke-width="1" stroke-linecap="butt" stroke-linejoin="miter" stroke-miterlimit="10" stroke-dasharray="" stroke-dashoffset="0" font-family="Sans Serif" font-weight="normal" text-anchor="start" style="mix-blend-mode: normal"><tspan x="0" dy="0">3D</tspan></text><text transform="translate(142.24356,127.7849) scale(0.47264,0.47264)" font-size="40" xml:space="preserve" fill="#636363" fill-rule="nonzero" stroke="none" stroke-width="1" stroke-linecap="butt" stroke-linejoin="miter" stroke-miterlimit="10" stroke-dasharray="" stroke-dashoffset="0" font-family="Sans Serif" font-weight="normal" text-anchor="start" style="mix-blend-mode: normal"><tspan x="0" dy="0">3D</tspan></text><text transform="translate(143.18106,127.94115) scale(0.47264,0.47264)" font-size="40" xml:space="preserve" fill="#636363" fill-rule="nonzero" stroke="none" stroke-width="1" stroke-linecap="butt" stroke-linejoin="miter" stroke-miterlimit="10" stroke-dasharray="" stroke-dashoffset="0" font-family="Sans Serif" font-weight="normal" text-anchor="start" style="mix-blend-mode: normal"><tspan x="0" dy="0">3D</tspan></text></g><g fill="#636363"><text transform="translate(142.86856,128.25365) scale(0.47264,0.47264)" font-size="40" xml:space="preserve" fill="#636363" fill-rule="nonzero" stroke="none" stroke-width="1" stroke-linecap="butt" stroke-linejoin="miter" stroke-miterlimit="10" stroke-dasharray="" stroke-dashoffset="0" font-family="Sans Serif" font-weight="normal" text-anchor="start" style="mix-blend-mode: normal"><tspan x="0" dy="0">3D</tspan></text><text transform="translate(143.49356,128.64428) scale(0.47264,0.47264)" font-size="40" xml:space="preserve" fill="#636363" fill-rule="nonzero" stroke="none" stroke-width="1" stroke-linecap="butt" stroke-linejoin="miter" stroke-miterlimit="10" stroke-dasharray="" stroke-dashoffset="0" font-family="Sans Serif" font-weight="normal" text-anchor="start" style="mix-blend-mode: normal"><tspan x="0" dy="0">3D</tspan></text><text transform="translate(144.43106,128.80053) scale(0.47264,0.47264)" font-size="40" xml:space="preserve" fill="#636363" fill-rule="nonzero" stroke="none" stroke-width="1" stroke-linecap="butt" stroke-linejoin="miter" stroke-miterlimit="10" stroke-dasharray="" stroke-dashoffset="0" font-family="Sans Serif" font-weight="normal" text-anchor="start" style="mix-blend-mode: normal"><tspan x="0" dy="0">3D</tspan></text></g><text transform="translate(140.41321,127.82813) scale(0.5,0.5)" font-size="40" xml:space="preserve" fill="#000000" fill-rule="nonzero" stroke="none" stroke-width="1" stroke-linecap="butt" stroke-linejoin="miter" stroke-miterlimit="10" stroke-dasharray="" stroke-dashoffset="0" font-family="Sans Serif" font-weight="normal" text-anchor="start" style="mix-blend-mode: normal"><tspan x="0" dy="0">3D</tspan></text></g><path d="M335.81196,123.12091v-34.88877h101.39547v34.88877z" fill="#33b9ff" stroke="none" stroke-width="0"/><text transform="translate(339.45171,112.31173) scale(0.5947,0.5947)" font-size="40" xml:space="preserve" fill="#000000" fill-rule="nonzero" stroke="none" stroke-width="1" stroke-linecap="butt" stroke-linejoin="miter" stroke-miterlimit="10" stroke-dasharray="" stroke-dashoffset="0" font-family="Sans Serif" font-weight="normal" text-anchor="start" style="mix-blend-mode: normal"><tspan x="0" dy="0">新規作成</tspan></text></g></g></svg>