<svg version="1.1" xmlns="http://www.w3.org/2000/svg" xmlns:xlink="http://www.w3.org/1999/xlink" width="466.24396" height="279.23753" viewBox="0,0,466.24396,279.23753"><g transform="translate(-6.73096,-40.38123)"><g data-paper-data="{&quot;isPaintingLayer&quot;:true}" fill-rule="nonzero" stroke-linecap="butt" stroke-linejoin="miter" stroke-miterlimit="10" stroke-dasharray="" stroke-dashoffset="0" style="mix-blend-mode: normal"><g><path d="M21.65497,319.61877v-242.19654h451.31996v242.19655z" fill="#000000" stroke="none" stroke-width="0"/><path d="M21.59834,95.48962c0,0 0,-24.04918 0,-31.07281c0,-3.60305 5.97057,-8.17704 13.76471,-8.17704c38.77808,0 349.845,0 422.48112,0c9.68187,0 15.12756,5.48032 15.12756,9.5399c0,7.16403 0,29.70996 0,29.70996z" fill="#000000" stroke="none" stroke-width="0"/><path d="M6.7876,303.76024v-242.19654h451.61408v242.19655z" fill="#ffffff" stroke="none" stroke-width="0"/><path d="M6.73096,79.63109c0,0 0,-24.04918 0,-31.07281c0,-3.60305 5.97057,-8.17705 13.76471,-8.17705c38.77808,0 349.845,0 422.48112,0c9.68187,0 15.12755,5.48032 15.12755,9.5399c0,7.16403 0,29.70996 0,29.70996z" fill="#e0e0e0" stroke="none" stroke-width="0"/><path d="M424.59613,59.1798c0,-7.74182 6.276,-14.01781 14.01782,-14.01781c7.74182,0 14.01781,6.27599 14.01781,14.01781c0,7.74182 -6.27599,14.01781 -14.01781,14.01781c-7.74182,0 -14.01782,-6.27599 -14.01782,-14.01781z" fill="#e04545" stroke="none" stroke-width="0"/><path d="M335.81196,123.1209v-34.88877h101.39547v34.88877z" fill="#33b9ff" stroke="none" stroke-width="0"/><text transform="translate(17.68326,117.10694) scale(0.48078,0.48078)" font-size="40" xml:space="preserve" fill="#000000" fill-rule="nonzero" stroke="none" stroke-width="1" stroke-linecap="butt" stroke-linejoin="miter" stroke-miterlimit="10" stroke-dasharray="" stroke-dashoffset="0" font-family="Sans Serif" font-weight="normal" text-anchor="start" style="mix-blend-mode: normal"><tspan x="0" dy="0">プロジェクト</tspan></text><text transform="translate(16.77469,148.90659) scale(0.48078,0.48078)" font-size="40" xml:space="preserve" fill="#000000" fill-rule="nonzero" stroke="none" stroke-width="1" stroke-linecap="butt" stroke-linejoin="miter" stroke-miterlimit="10" stroke-dasharray="" stroke-dashoffset="0" font-family="Sans Serif" font-weight="normal" text-anchor="start" style="mix-blend-mode: normal"><tspan x="0" dy="0">使い方を学ぶ</tspan></text><text transform="translate(17.68325,177.07199) scale(0.48078,0.48078)" font-size="40" xml:space="preserve" fill="#000000" fill-rule="nonzero" stroke="none" stroke-width="1" stroke-linecap="butt" stroke-linejoin="miter" stroke-miterlimit="10" stroke-dasharray="" stroke-dashoffset="0" font-family="Sans Serif" font-weight="normal" text-anchor="start" style="mix-blend-mode: normal"><tspan x="0" dy="0">コミュニティ</tspan></text><text transform="translate(16.77469,206.14596) scale(0.48078,0.48078)" font-size="40" xml:space="preserve" fill="#000000" fill-rule="nonzero" stroke="none" stroke-width="1" stroke-linecap="butt" stroke-linejoin="miter" stroke-miterlimit="10" stroke-dasharray="" stroke-dashoffset="0" font-family="Sans Serif" font-weight="normal" text-anchor="start" style="mix-blend-mode: normal"><tspan x="0" dy="0">インストール</tspan></text><path d="M170.62446,281.62823v-144.13519h258.03148v144.13519z" fill="#e0e0e0" stroke="#d4d4d4" stroke-width="7.5"/><text transform="translate(339.45171,112.31172) scale(0.5947,0.5947)" font-size="40" xml:space="preserve" fill="#000000" fill-rule="nonzero" stroke="none" stroke-width="1" stroke-linecap="butt" stroke-linejoin="miter" stroke-miterlimit="10" stroke-dasharray="" stroke-dashoffset="0" font-family="Sans Serif" font-weight="normal" text-anchor="start" style="mix-blend-mode: normal"><tspan x="0" dy="0">新規作成</tspan></text></g></g></g></svg>